<svg xmlns="http://www.w3.org/2000/svg">
  <symbol id="search" width="inherit" height="inherit" viewBox="0 0 14 14">
    <circle cx="5.92" cy="5.92" r="5.42" fill="none" stroke="inherit" stroke-linecap="round" stroke-linejoin="round"></circle>
    <line x1="13.5" y1="13.5" x2="9.75" y2="9.75" fill="none" stroke="inherit" stroke-linecap="round" stroke-linejoin="round"></line>
  </symbol>
  <symbol id="playlist" width="inherit" height="inherit" viewBox="0 0 14 14">
    <rect x="0.5" y="0.5" width="13" height="13" rx="1" fill="none" stroke="inherit" stroke-linecap="round" stroke-linejoin="round"></rect>
    <path d="M5.23,9.23V4.91a.41.41,0,0,1,.62-.35l3.7,2.15a.41.41,0,0,1,0,.71L5.85,9.58A.41.41,0,0,1,5.23,9.23Z" fill="none" stroke="inherit" stroke-linecap="round" stroke-linejoin="round"></path>
  </symbol>
  <symbol id="queue" width="inherit" height="inherit" viewBox="0 0 14 14">
    <path d="M7.47,6.9a1.18,1.18,0,0,1-.94,0L.83,4.26a.56.56,0,0,1,0-1L6.53.6a1.18,1.18,0,0,1,.94,0l5.7,2.64a.56.56,0,0,1,0,1Z" fill="none" stroke="inherit" stroke-linecap="round" stroke-linejoin="round"></path>
    <path d="M13.5,7.35,7.4,10.16a1,1,0,0,1-.83,0L.5,7.35" fill="none" stroke="inherit" stroke-linecap="round" stroke-linejoin="round"></path><path d="M13.5,10.6,7.4,13.41a1,1,0,0,1-.83,0L.5,10.6" fill="none" stroke="inherit" stroke-linecap="round" stroke-linejoin="round"></path>
  </symbol>
  <symbol id="settings" width="inherit" height="inherit" viewBox="0 0 14 14">
    <path d="M5.23,2.25l.43-1.11A1,1,0,0,1,6.59.5h.82a1,1,0,0,1,.93.64l.43,1.11,1.46.84,1.18-.18a1,1,0,0,1,1,.49l.4.7a1,1,0,0,1-.08,1.13L12,6.16V7.84l.75.93a1,1,0,0,1,.08,1.13l-.4.7a1,1,0,0,1-1,.49l-1.18-.18-1.46.84-.43,1.11a1,1,0,0,1-.93.64H6.59a1,1,0,0,1-.93-.64l-.43-1.11-1.46-.84-1.18.18a1,1,0,0,1-1-.49l-.4-.7a1,1,0,0,1,.08-1.13L2,7.84V6.16l-.75-.93A1,1,0,0,1,1.17,4.1l.4-.7a1,1,0,0,1,1-.49l1.18.18ZM5,7A2,2,0,1,0,7,5,2,2,0,0,0,5,7Z" fill="none" stroke="inherit" stroke-linecap="round" stroke-linejoin="round"></path>
  </symbol>
  <symbol id="add" width="inherit" height="inherit" viewBox="0 0 14 14">
    <line x1="7" y1="4" x2="7" y2="10" fill="none" stroke="inherit" stroke-linecap="round" stroke-linejoin="round"></line>
    <line x1="4" y1="7" x2="10" y2="7" fill="none" stroke="inherit" stroke-linecap="round" stroke-linejoin="round"></line>
  </symbol>
  <symbol id="play" width="inherit" height="inherit" viewBox="0 0 14 14">
    <path d="M1.5,12.35a1.14,1.14,0,0,0,.63,1,1.24,1.24,0,0,0,1.22,0L12,8A1.11,1.11,0,0,0,12,6L3.35.69a1.24,1.24,0,0,0-1.22,0,1.14,1.14,0,0,0-.63,1Z" fill="inherit" stroke="inherit" stroke-linecap="round" stroke-linejoin="round"></path>
  </symbol>
  <symbol id="previous" width="inherit" height="inherit" viewBox="0 0 14 14">
    <line x1="0.5" y1="0.5" x2="0.5" y2="13.5" fill="inherit" stroke="inherit" stroke-linecap="round" stroke-linejoin="round"></line>
    <path d="M13.5,11.66a1,1,0,0,1-.52.88,1,1,0,0,1-1,0L4.79,7.84a1,1,0,0,1,0-1.68L12,1.5a1,1,0,0,1,1,0,1,1,0,0,1,.52.88Z" fill="inherit" stroke="inherit" stroke-linecap="round" stroke-linejoin="round"></path>
  </symbol>
  <symbol id="next" width="inherit" height="inherit" viewBox="0 0 14 14">
    <line x1="13.5" y1="0.5" x2="13.5" y2="13.5" fill="inherit" stroke="inherit" stroke-linecap="round" stroke-linejoin="round"></line>
    <path d="M.5,11.66a1,1,0,0,0,.52.88,1,1,0,0,0,1,0L9.21,7.84a1,1,0,0,0,0-1.68L2,1.5a1,1,0,0,0-1,0,1,1,0,0,0-.52.88Z" fill="inherit" stroke="inherit" stroke-linecap="round" stroke-linejoin="round"></path>
  </symbol>
  <symbol id="pause" width="inherit" height="inherit" viewBox="0 0 14 14">
    <rect x="0.5" y="0.5" width="4.5" height="13" rx="1" fill="inherit" stroke="inherit" stroke-linecap="round" stroke-linejoin="round"></rect>
    <rect x="9" y="0.5" width="4.5" height="13" rx="1" fill="inherit" stroke="inherit" stroke-linecap="round" stroke-linejoin="round"></rect>
  </symbol>
  <symbol id="scroll-back" width="inherit" height="inherit" viewBox="0 0 14 14">
    <path d="M.5,7A6.5,6.5,0,1,0,7,.5a7.23,7.23,0,0,0-5,2" fill="none" stroke="inherit" stroke-linecap="round" stroke-linejoin="round"></path>
    <polyline points="2.5 0.5 2 2.5 4 3" fill="none" stroke="inherit" stroke-linecap="round" stroke-linejoin="round"></polyline>
    <polyline points="7 3.5 7 7.5 4.4 8.8" fill="none" stroke="inherit" stroke-linecap="round" stroke-linejoin="round"></polyline>
  </symbol>
  <symbol id="scroll-further" width="inherit" height="inherit" viewBox="0 0 14 14">
    <path d="M7,.5A6.5,6.5,0,1,1,.5,7a7.23,7.23,0,0,1,2-5" fill="none" stroke="inherit" stroke-linecap="round" stroke-linejoin="round"></path>
    <polyline points="0.5 2.5 2.5 2 3 4" fill="none" stroke="inherit" stroke-linecap="round" stroke-linejoin="round"></polyline>
    <polyline points="7 3.5 7 7.5 9.6 8.8" fill="none" stroke="inherit" stroke-linecap="round" stroke-linejoin="round"></polyline>
  </symbol>
  <symbol id="link" width="inherit" height="inherit" viewBox="0 0 14 14">
    <path d="M4,6.49.79,9.67a1,1,0,0,0,0,1.42l2.12,2.12a1,1,0,0,0,1.42,0L7.51,10" fill="none" stroke="inherit" stroke-linecap="round" stroke-linejoin="round"></path>
    <path d="M10,7.51l3.18-3.18a1,1,0,0,0,0-1.42L11.09.79a1,1,0,0,0-1.42,0L6.49,4" fill="none" stroke="inherit" stroke-linecap="round" stroke-linejoin="round"></path>
    <line x1="9" y1="5" x2="5" y2="9" fill="none" stroke="inherit" stroke-linecap="round" stroke-linejoin="round"></line>
  </symbol>
  <symbol id="theme" width="inherit" height="inherit" viewBox="0 0 14 14">
    <g>
      <line x1="7" y1="0.5" x2="7" y2="1.5" fill="none" stroke="inherit" stroke-linecap="round" stroke-linejoin="round"></line>
      <line x1="7" y1="12.5" x2="7" y2="13.5" fill="none" stroke="inherit" stroke-linecap="round" stroke-linejoin="round"></line>
      <line x1="1.5" y1="7" x2="0.5" y2="7" fill="none" stroke="inherit" stroke-linecap="round" stroke-linejoin="round"></line>
      <line x1="3.11" y1="10.89" x2="2.4" y2="11.6" fill="none" stroke="inherit" stroke-linecap="round" stroke-linejoin="round"></line>
      <line x1="3.11" y1="3.11" x2="2.4" y2="2.4" fill="none" stroke="inherit" stroke-linecap="round" stroke-linejoin="round"></line>
      <path d="M7,3.5a3.5,3.5,0,0,0,0,7Z" fill="none" stroke="inherit" stroke-linecap="round" stroke-linejoin="round"></path>
      <line x1="12.5" y1="7" x2="13.5" y2="7" fill="none" stroke="inherit" stroke-linecap="round" stroke-linejoin="round"></line>
      <line x1="10.89" y1="10.89" x2="11.6" y2="11.6" fill="none" stroke="inherit" stroke-linecap="round" stroke-linejoin="round"></line>
      <line x1="10.89" y1="3.11" x2="11.6" y2="2.4" fill="none" stroke="inherit" stroke-linecap="round" stroke-linejoin="round"></line>
    </g>
  </symbol>
  <symbol id="synchronize" width="inherit" height="inherit" viewBox="0 0 14 14">
    <g>
      <g>
        <polyline points="11 9 13 8.5 13.5 10.5" fill="none" stroke="inherit" stroke-linecap="round" stroke-linejoin="round"></polyline>
        <path d="M13,8.5A6.76,6.76,0,0,1,7,13H7A6,6,0,0,1,1.36,9.05" fill="none" stroke="inherit" stroke-linecap="round" stroke-linejoin="round"></path>
      </g>
      <g>
        <polyline points="3 5 1 5.5 0.5 3.5" fill="none" stroke="inherit" stroke-linecap="round" stroke-linejoin="round"></polyline>
        <path d="M1,5.5C1.84,3.2,4.42,1,7,1H7a6,6,0,0,1,5.64,4" fill="none" stroke="inherit" stroke-linecap="round" stroke-linejoin="round"></path>
      </g>
    </g>
  </symbol>
  <symbol id="qr" width="inherit" height="inherit" viewBox="0 0 14 14">
    <g>
      <rect x="3" y="3" width="4" height="4" rx="1" fill="none" stroke="inherit" stroke-linecap="round" stroke-linejoin="round"></rect>
      <path d="M3,.5H1.5a1,1,0,0,0-1,1V3" fill="none" stroke="inherit" stroke-linecap="round" stroke-linejoin="round"></path>
      <path d="M11,.5h1.5a1,1,0,0,1,1,1V3" fill="none" stroke="inherit" stroke-linecap="round" stroke-linejoin="round"></path>
      <path d="M3,13.5H1.5a1,1,0,0,1-1-1V11" fill="none" stroke="inherit" stroke-linecap="round" stroke-linejoin="round"></path>
      <path d="M11,13.5h1.5a1,1,0,0,0,1-1V11" fill="none" stroke="inherit" stroke-linecap="round" stroke-linejoin="round"></path>
      <polyline points="3 9.5 3 11 4.5 11" fill="none" stroke="inherit" stroke-linecap="round" stroke-linejoin="round"></polyline>
      <polyline points="7 11 7 9.5 5.5 9.5" fill="none" stroke="inherit" stroke-linecap="round" stroke-linejoin="round"></polyline>
      <polyline points="11 4.5 9.5 4.5 9.5 3" fill="none" stroke="inherit" stroke-linecap="round" stroke-linejoin="round"></polyline>
      <polyline points="11 8 11 6.5 9.5 6.5" fill="none" stroke="inherit" stroke-linecap="round" stroke-linejoin="round"></polyline>
      <polyline points="9.5 9.5 9.5 11 11 11" fill="none" stroke="inherit" stroke-linecap="round" stroke-linejoin="round"></polyline>
    </g>
  </symbol>
  <symbol id="camera" width="inherit" height="inherit" viewBox="0 0 14 14">
    <g>
      <path d="M13.5,5a1,1,0,0,0-1-1h-2L9,2H5L3.5,4h-2a1,1,0,0,0-1,1v6a1,1,0,0,0,1,1h11a1,1,0,0,0,1-1Z" fill="none" stroke="inherit" stroke-linecap="round" stroke-linejoin="round"></path>
      <circle cx="7" cy="7.5" r="2.25" fill="none" stroke="inherit" stroke-linecap="round" stroke-linejoin="round"></circle>
    </g>
  </symbol>
  <symbol id="filters" width="inherit" height="inherit" viewBox="0 0 14 14">
    <g>
      <circle cx="2" cy="2" r="1.5" fill="none" stroke="inherit" stroke-linecap="round" stroke-linejoin="round"></circle>
      <line x1="3.5" y1="2" x2="13.5" y2="2" fill="none" stroke="inherit" stroke-linecap="round" stroke-linejoin="round"></line>
      <circle cx="7" cy="7" r="1.5" fill="none" stroke="inherit" stroke-linecap="round" stroke-linejoin="round"></circle>
      <line x1="0.5" y1="7" x2="5.5" y2="7" fill="none" stroke="inherit" stroke-linecap="round" stroke-linejoin="round"></line>
      <line x1="8.5" y1="7" x2="13.5" y2="7" fill="none" stroke="inherit" stroke-linecap="round" stroke-linejoin="round"></line>
      <circle cx="12" cy="12" r="1.5" fill="none" stroke="inherit" stroke-linecap="round" stroke-linejoin="round"></circle>
      <line x1="10.5" y1="12" x2="0.5" y2="12" fill="none" stroke="inherit" stroke-linecap="round" stroke-linejoin="round"></line>
    </g>
  </symbol>
  <symbol id="playlistThumbnail" width="inherit" height="inherit" viewBox="0 0 14 14">
    <g>
      <line x1="13.5" y1="2" x2="0.5" y2="2" fill="none" stroke="inherit" stroke-linecap="round" stroke-linejoin="round"></line>
      <line x1="13.5" y1="7" x2="0.5" y2="7" fill="none" stroke="inherit" stroke-linecap="round" stroke-linejoin="round"></line>
      <line x1="13.5" y1="12" x2="0.5" y2="12" fill="none" stroke="inherit" stroke-linecap="round" stroke-linejoin="round"></line>
    </g>
  </symbol>
  <symbol id="back" width="inherit" height="inherit" viewBox="0 0 14 14">
    <g>
      <line x1="13.5" y1="7" x2="0.5" y2="7" fill="none" stroke="inherit" stroke-linecap="round" stroke-linejoin="round"></line>
      <polyline points="4 3.5 0.5 7 4 10.5" fill="none" stroke="inherit" stroke-linecap="round" stroke-linejoin="round">
      </polyline>
    </g>
  </symbol>
  <symbol id="favorite" width="inherit" height="inherit" viewBox="0 0 14 14">
    <path d="M7,12.45l-5.52-5c-3-3,1.41-8.76,5.52-4.1,4.11-4.66,8.5,1.12,5.52,4.1Z" fill="none" stroke="inherit" stroke-linecap="round" stroke-linejoin="round"></path>
  </symbol>
  <symbol id="logo" width="inherit" height="inherit" viewBox="0 0 512 512">
    <path d="M87.369828,479.716162C66.126151,416.110412,37.368332,308.187816,38.450048,256C36.181184,94.640038,164.488539,40.096516,256,41.261702c132.358101-1.484332,219.346108,93.260846,218.226898,207.265865-.370847,64.00651-24.032241,157.246509-49.366359,231.188595-1.959584,6.340882,1.502253,9.859812,11.062213,11.872831c6.829138,1.473459,17.77012-3.142983,21.232312-11.872831c3.471261-10.607872,49.892531-134.81466,47.470317-231.188595C502.961221,35.58077,309.369762,7.545718,256,10.271649C135.932166,5.481681,2.046479,91.848305,7.498219,248.527567c-4.04581,53.694982,22.266875,163.658751,46.968372,231.188595c1.957459,6.869153,10.022646,11.248831,17.907407,11.872831s17.496429-4.641724,14.99583-11.872831" transform="translate(.000002 0.000002)" fill="inherit" stroke="inherit" stroke-width="15" stroke-linecap="round" stroke-linejoin="round" stroke-dasharray="0"/>
    <path d="M134.501243,491.135527c1.496282,4.635639,6.937011,10.39232,11.870491,10.52433c16.321251-1.159964,25.125918-5.938491,28.22086-9.276379s8.133908-14.35472,4.832456-30.699098L141.312868,320.783897c-3.267838-10.210288-16.190119-18.246802-25.66365-16.43485l-17.82549,4.171924c-5.733736,1.207103-10.610882,14.732401-7.317529,20.548179c12.755732,48.834651,43.995044,162.066377,43.995044,162.066377" transform="translate(0 0.000001)" fill="inherit" stroke="inherit" stroke-width="15" stroke-linecap="round" stroke-linejoin="round" stroke-dasharray="0"/>
    <path d="M90.506199,329.06915c12.755732,48.834651,43.995044,162.066377,43.995044,162.066377c1.496282,4.635639,6.937011,10.39232,11.870491,10.52433c16.321251-1.159964,25.125918-5.938491,28.22086-9.276379s8.133908-14.35472,4.832456-30.699098L141.312868,320.783897c-3.267838-10.210288-16.190119-18.246802-25.66365-16.43485l-17.82549,4.171924c-5.733736,1.207103-10.610882,14.732401-7.317529,20.548179Z" transform="matrix(-1 0 0 1 511.699342 0.000001)" fill="inherit" stroke="inherit" stroke-width="15" stroke-linecap="round" stroke-linejoin="round" stroke-dasharray="0"/>
  </symbol>
</svg>